<?xml version="1.0" encoding="utf-8"?>
<!-- Generator: Adobe Illustrator 27.5.0, SVG Export Plug-In . SVG Version: 6.00 Build 0)  -->
<svg version="1.1" id="Layer_1" xmlns="http://www.w3.org/2000/svg" xmlns:xlink="http://www.w3.org/1999/xlink" x="0px" y="0px"
	 viewBox="0 0 3000 2000" style="enable-background:new 0 0 3000 2000;" xml:space="preserve">
<rect style="fill:#FFFFFF;" width="3000" height="2000"/>
<g>
	<g>
		<g>
			<path style="fill:#588FE0;" d="M2734.114,1710.871l-2362.105-0.709c0,0-0.846-0.916-2.421-2.697
				c-24.542-27.75-224.751-266.076-129.952-551.221c16.519-49.703,42.005-100.824,78.95-152.506
				c232.902-325.84,504.442-303.563,703.667-171.336c84.846,56.318,329.482,6.94,537.705-324.61
				c66.517-105.913,171.465-171.967,290.874-202.08c62.444-15.807,133.018-22.592,207.701-17.63
				c170.706,11.298,341.236,82.34,458.184,200.938c124.972,126.674,190.682,309.056,132.01,536.484
				C2561.882,1362.143,2913.05,1374.379,2734.114,1710.871z"/>
			<g>
				<path style="fill:#273F76;" d="M2495.05,468.14c-72.364-66.281-161.582-115.491-256.784-145.85
					c-11.202-3.583-22.493-6.891-33.854-9.942c-0.197-0.059-0.394-0.108-0.601-0.158c-1.949-0.522-3.898-1.044-5.857-1.546
					c-5.552-1.437-11.123-2.815-16.705-4.125c-40.499-9.529-81.667-15.721-122.717-18.438
					c-63.268-4.204-126.241-0.167-186.034,12.59c-2.146,0.453-4.302,0.925-6.438,1.408c-1.182,0.266-2.343,0.532-3.515,0.797
					v838.551h643.342V478.319C2502.324,474.883,2498.702,471.487,2495.05,468.14z"/>
				<path style="opacity:0.05;fill:#9FC1F4;" d="M2516.719,489.02v107.744c-3.603,1.26-7.206,2.392-10.828,3.386
					c-0.236,0.069-0.482,0.128-0.719,0.197c-3.356,0.916-6.733,1.733-10.12,2.422c-0.473,0.108-0.945,0.206-1.417,0.295
					c-41.169,8.102-82.977-0.709-123.78-33.953c-93.727-76.331-126.201-166.454-131.586-246.821
					c95.202,30.359,184.419,79.57,256.783,145.85c3.652,3.347,7.274,6.743,10.839,10.179
					C2509.552,481.833,2513.155,485.407,2516.719,489.02z"/>
				<path style="fill:#9FC1F4;" d="M2334.362,476.173c0-10.039,8.138-18.177,18.177-18.177c10.038,0,18.177,8.138,18.177,18.177
					c0,10.038-8.139,18.177-18.177,18.177C2342.5,494.35,2334.362,486.211,2334.362,476.173z"/>
				<path style="opacity:0.9;fill:#233862;" d="M2495.062,668.733v455.103h-622.561V300.672
					c59.793-12.758,122.766-16.794,186.033-12.59c32.781,82.75,73.142,161,122.717,224.859c5.454,7.039,11.025,13.9,16.705,20.564
					c1.939,2.274,3.889,4.528,5.857,6.753c0.197,0.227,0.404,0.453,0.601,0.679c75.583,85.545,170.845,138.034,290.638,127.796
					H2495.062z"/>
				<g>
					<g>
						<path style="fill:#2B478B;" d="M2505.888,478.319c-3.563-3.435-7.186-6.832-10.838-10.179v655.213h-622.552V300.672
							c-2.146,0.453-4.302,0.925-6.438,1.408c-1.182,0.266-2.343,0.532-3.515,0.797c-3.918,0.906-7.826,1.85-11.715,2.835v857.384
							h665.885V489.02C2513.153,485.407,2509.55,481.833,2505.888,478.319z"/>
					</g>
					<path style="fill:#2B478B;" d="M2575.659,1163.096h-788.82l0,0c0-21.684,17.578-39.262,39.262-39.262h710.297
						C2558.081,1123.834,2575.659,1141.412,2575.659,1163.096L2575.659,1163.096z"/>
					<path style="fill:#2B478B;" d="M2203.813,312.19v829.238h-22.563V306.52c5.582,1.309,11.153,2.688,16.705,4.125
						C2199.916,311.146,2201.864,311.668,2203.813,312.19z"/>
				</g>
				<path style="fill:#9FC1F4;" d="M2447.826,517.297c0-1.551,1.258-2.808,2.809-2.808s2.808,1.257,2.808,2.808
					c0,1.551-1.257,2.808-2.808,2.808S2447.826,518.848,2447.826,517.297z"/>
				<path style="fill:#9FC1F4;" d="M2237.424,443.979c0-1.722,1.396-3.117,3.117-3.117s3.116,1.395,3.116,3.117
					c0,1.721-1.395,3.117-3.116,3.117S2237.424,445.701,2237.424,443.979z"/>
				<circle style="fill:#9FC1F4;" cx="2376.891" cy="582.553" r="2.005"/>
				<path style="fill:#9FC1F4;" d="M2095.618,551.796c0-1.551,1.257-2.808,2.808-2.808s2.809,1.257,2.809,2.808
					s-1.258,2.808-2.809,2.808S2095.618,553.347,2095.618,551.796z"/>
				<path style="fill:#9FC1F4;" d="M2136.537,668.931c0-1.107,0.897-2.004,2.005-2.004s2.005,0.897,2.005,2.004
					c0,1.107-0.897,2.005-2.005,2.005S2136.537,670.039,2136.537,668.931z"/>
				<path style="fill:#385AA0;" d="M1866.063,302.08c2.136-0.482,4.292-0.955,6.438-1.408v823.164h-6.438V302.08z"/>
				<path style="fill:#385AA0;" d="M2204.414,312.347v811.489h-6.458V310.644c1.96,0.502,3.908,1.024,5.857,1.546
					C2204.021,312.239,2204.218,312.288,2204.414,312.347z"/>
			</g>
		</g>
		<g>
			<rect x="1374.397" y="1012.002" style="fill:#3358A0;" width="199.489" height="695.467"/>
			
				<rect x="1280.394" y="1012.002" transform="matrix(-1 -1.224647e-16 1.224647e-16 -1 2669.79 2719.4707)" style="fill:#233862;" width="109.003" height="695.467"/>
		</g>
		<path style="fill:#233862;" d="M1705.423,733.259c-1.423-2.366-4.495-3.129-6.861-1.706l-4.587,2.758
			c-6.302,3.792-14.341,3.623-20.479-0.432l-3.351-2.213c-0.818-0.541-1.776-0.829-2.757-0.829h-38.25h-0.914h-38.25
			c-0.98,0-1.938,0.288-2.757,0.829l-3.351,2.213c-6.137,4.055-14.176,4.225-20.479,0.433l-4.586-2.759
			c-2.366-1.424-5.438-0.66-6.861,1.706c-1.424,2.366-0.66,5.439,1.706,6.862l4.586,2.76c4.61,2.773,9.829,4.153,15.044,4.153
			c5.631,0,11.258-1.609,16.104-4.811l2.097-1.385h32.662v947.704c-28.232,1.008-48.491,9.273-49.843,9.838
			c-2.548,1.065-3.75,3.994-2.685,6.542s3.993,3.748,6.542,2.685c0.501-0.21,50.677-20.691,102.16,0.603
			c0.625,0.258,1.272,0.381,1.909,0.381c1.963,0,3.825-1.164,4.622-3.091c1.056-2.552-0.157-5.476-2.709-6.531
			c-17.454-7.219-34.613-10.026-49.997-10.464V740.837h31.748l2.097,1.386c4.847,3.202,10.472,4.811,16.104,4.811
			c5.214,0,10.435-1.38,15.044-4.153l4.586-2.759C1706.083,738.698,1706.847,735.625,1705.423,733.259z"/>
		<g>
			<path style="fill:#FFB93E;" d="M1662.555,777.599h42.5c2.485,0,4.5,2.015,4.5,4.5v50.905c0,1.47-0.718,2.847-1.922,3.688
				l-21.196,14.817c-1.575,1.101-3.675,1.081-5.228-0.05l-21.303-15.512c-1.164-0.847-1.852-2.199-1.852-3.638v-50.211
				C1658.055,779.614,1660.069,777.599,1662.555,777.599z"/>
			<path style="opacity:0.7;fill:#ABDDDA;" d="M1706.555,748.682h-8.584c-1.84,0-3.333-1.492-3.333-3.334v-0.335
				c-1.56,0.623-5.495,1.981-10.322,2.028c-2.683,0.027-5.082-1.965-5.29-4.64c-0.23-2.968,2.109-5.448,5.029-5.448
				c0.238,0,0.466,0.038,0.696,0.07c1.29-0.081,4.167-0.386,6.749-1.526c-2.082-2.062-5.013-3.267-8.223-3.037
				c-5.588,0.4-9.806,5.278-9.806,10.881v2.008c0,1.841-1.492,3.334-3.334,3.334h-9.166c-3.084,0-5.584,2.5-5.584,5.583v80.462
				c0,1.848,0.915,3.577,2.442,4.617l22.792,15.506c0.174,0.118,0.352,0.225,0.534,0.321c1.082,0.569,1.904,1.526,2.122,2.729
				c3.419,18.953,14.4,86.497,11.34,156.869c-2.106,48.418-10.348,88.665-24.496,119.625
				c-17.573,38.454-44.383,62.584-79.686,71.719c-0.74,0.191-1.293,0.881-1.204,1.641c0.093,0.791,0.756,1.335,1.491,1.335
				c0.124,0,0.25-0.016,0.375-0.048c36.271-9.356,63.779-34.059,81.762-73.42c14.309-31.321,22.638-71.954,24.757-120.772
				c3.092-71.235-8.315-139.313-11.665-157.7c-0.16-0.882,0.202-1.785,0.941-2.292c0.004-0.002,0.007-0.004,0.01-0.007
				l22.792-15.506c1.527-1.039,2.442-2.768,2.442-4.617v-80.462C1712.138,751.182,1709.639,748.682,1706.555,748.682z"/>
		</g>
		<g>
			<path style="fill:#FFB93E;" d="M1551.663,817.633h42.5c2.485,0,4.5,2.015,4.5,4.5v10.905c0,1.469-0.718,2.846-1.922,3.689
				l-21.196,14.817c-1.574,1.101-3.674,1.081-5.228-0.05l-21.303-15.512c-1.163-0.847-1.852-2.199-1.852-3.638v-10.211
				C1547.163,819.648,1549.178,817.633,1551.663,817.633z"/>
			<path style="opacity:0.7;fill:#ABDDDA;" d="M1595.663,748.717h-8.583c-1.841,0-3.334-1.492-3.334-3.333v-0.335
				c-1.559,0.623-5.495,1.98-10.321,2.028c-2.683,0.027-5.083-1.965-5.291-4.64c-0.23-2.968,2.11-5.448,5.029-5.448
				c0.238,0,0.467,0.038,0.696,0.07c1.291-0.081,4.167-0.386,6.749-1.526c-2.081-2.061-5.012-3.267-8.222-3.037
				c-5.589,0.399-9.807,5.278-9.807,10.881v2.008c0,1.841-1.492,3.333-3.333,3.333h-9.167c-3.084,0-5.584,2.5-5.584,5.583v80.462
				c0,1.848,0.915,3.577,2.443,4.617l22.791,15.506l0,0c0.68,0.655,1.086,1.541,1.136,2.484
				c0.598,11.361,4.276,86.658,1.197,162.354c-4.365,107.323-20.077,166.744-45.44,171.869c-0.771,0.155-1.387,0.817-1.328,1.601
				c0.061,0.813,0.733,1.396,1.495,1.396c0.095,0,0.191-0.01,0.288-0.028c27.343-5.335,43.486-64.124,47.983-174.733
				c2.954-72.657-0.305-144.923-1.109-160.852c-0.081-1.624,0.692-3.166,2.04-4.076l0.02-0.014l22.792-15.506
				c1.528-1.04,2.442-2.768,2.442-4.617V754.3C1601.246,751.216,1598.747,748.717,1595.663,748.717z"/>
		</g>
		<g>
			<path style="fill:#8C2D26;" d="M2480.724,1706.108c-0.145,0.073-0.312,0.138-0.507,0.211h-100.551
				c0.942-3.579,4.23-10.099,15.734-11.968c15.603-2.535,42.643-11.597,48.678-31.561c0.188-0.638,0.361-1.297,0.514-1.963
				c4.788-21.326,39.616,6.534,39.616,6.534s0.108,0.848,0.253,2.296C2485.272,1677.481,2487.337,1702.799,2480.724,1706.108z"/>
			<path style="fill:#2C3A64;" d="M2347.738,1344.975c0,0,65.392,232.286,85.091,322.117c0,0,48.535,9.738,56.084-5.517
				c0,0-15.64-252.956-44.407-285.086C2408.718,1336.519,2347.738,1344.975,2347.738,1344.975z"/>
			<g>
				<g>
					<path style="fill:#ED975D;" d="M2342.333,1109.537c0,0,1.716-10.392-0.961-19.046c-2.677-8.655-13.873-31.479-10.329-39.408
						c3.543-7.931,16.365-29.27,24.275-29.207c7.91,0.064-8.316,22.837-6.087,29.95c2.228,7.114,2.966,7.692,5.714,7.064
						c2.748-0.627,6.934-14.246,8.323-11.066c1.391,3.179,0.582,24.256-2.032,29.518s2.748,34.932,2.748,34.932L2342.333,1109.537z"
						/>
					<path style="fill:#FFA412;" d="M2336.009,1104.912c0,0,17.507-9.944,31.05-5.753c0,0,26.873,77.4,41.673,134.314
						c28.409-70.1,45.889-140.011,45.889-140.011s34.444,47.566,46.878,79.195c12.434,31.63-61.875,142.598-90.71,151.307
						c-30.095,9.088-24.616-0.017-41.595-9.732C2363.729,1307.146,2346.262,1271.869,2336.009,1104.912z"/>
					<path style="fill:#8C2D26;" d="M2256.798,1709.731c-0.145,0.072-0.312,0.138-0.507,0.21H2155.74
						c0.942-3.578,4.231-10.098,15.734-11.966c15.603-2.536,42.644-11.599,48.678-31.562c0.188-0.638,0.362-1.297,0.514-1.963
						c4.789-21.326,39.616,6.533,39.616,6.533s0.108,0.848,0.254,2.297C2261.348,1681.104,2263.412,1706.421,2256.798,1709.731z"/>
					<path style="fill:#35488B;" d="M2328.227,1339.335c0,0,9.795,4.358,21.883,13.271c1.375-7.004,3.357-11.551,3.357-11.551
						c86.289-22.474,317.265-20.643,317.265-20.643s49.659,12.438,35.077,84.725c-13.419,66.521-235.189,35.72-306.824,15.763
						c-1.676-0.467-3.298-0.956-4.868-1.466c5.698,42.384-34.214,102.847-69.155,158.49c-28.803,45.868-53.316,92.3-53.316,92.3
						c-14.465,8.971-63.029,3.783-63.029,3.783C2239.311,1587.315,2328.227,1339.335,2328.227,1339.335z"/>
					<g>
						<path style="fill:#FFB27D;" d="M2518.655,1069.979c0,0-24.772,79.305-61.981,97.042c0,0-3.52-24.061,2.501-42.358
							c-4.913-3.762-9.267-7.252-13.063-10.396c-12.621-10.503-18.996-17.225-18.996-17.225l5.531-38.669l3.752-26.237
							c6.051,6.935,12.296,12.607,18.529,17.264C2487.049,1073.358,2518.655,1069.979,2518.655,1069.979z"/>
						<path style="fill:#ED975D;" d="M2454.928,1049.399c0,0,12.477,34.33-8.816,64.867c-12.621-10.503-18.996-17.225-18.996-17.225
							l5.531-38.669C2445.97,1050.923,2454.928,1049.399,2454.928,1049.399z"/>
						<path style="fill:#FFB27D;" d="M2417.678,1104.556c0,0,54.859-36.396,31.668-70.211
							c-23.193-33.814-31.732-61.286-67.738-39.477c-36.007,21.809-33.892,39.331-28.896,52.5
							C2357.708,1060.537,2402.811,1113.152,2417.678,1104.556z"/>
						<path style="fill:#2B478B;" d="M2442.965,963.552c0.24-0.92,1.267-2.072,4.047-3.629c0,0-2.993-0.332-6.084,1.087
							c-2.573-3.741-8.184-9.844-15.87-8.231c0,0,4.647,0.189,7.229,4.242c-11.962-4.378-31.871-2.077-76.999,24.704
							c-59.475,35.294-19.35,65.552-8.982,66.424c10.365,0.871,24.093-22.169,39.614-28.281
							c15.521-6.112,29.099,14.409,35.638,14.935s1.941-3.816,7.254-10.32c5.313-6.505,11.615,4.71,13.311,13.179
							c1.694,8.47,15.959,13.747,15.959,13.747s0,0,4.416-15.071c4.417-15.071-8.215-63.554-17.146-70.833
							C2444.561,964.862,2443.771,964.206,2442.965,963.552z"/>
					</g>
					<path style="fill:#FFB93E;" d="M2451.903,1202.116c16.476,39.025,31.542,63.945,33.513,67.203
						c7.102,11.735,14.724,22.51,21.695,31.916c0.22,0.302,0.439,0.595,0.659,0.896c13.73,18.471,34.726,23.557,34.074,28.19
						c-1.312,9.292,22.159,31.586,60.859,41.473c44.905,11.476,96.945,16.997,110.098,1.816c4.397-5.099,5.863-14.472,5.375-26.126
						c-0.961-24.546-31.859-123.396-31.859-123.396c-52.854-159.952-204.215-159.952-204.215-159.952s2.966,38.318-34.187,51.617
						C2447.867,1115.834,2439.188,1171.998,2451.903,1202.116z"/>
					<path style="fill:#FFB27D;" d="M2363.01,1315.929c0,0-22.729,8.035-28.963,11.938s-20.585,23.543-22.199,30.429
						c-1.614,6.885-3.509,27.12-2.332,30.506c1.178,3.388,18.576-9.595,22.442-21.813s13.803-15.507,13.423-14.85
						c-0.381,0.657-5.467,16.3-4.394,16.975s5.704,1.844,9.899-6.888c4.196-8.731,12.51-15.112,10.938-24.135
						C2360.255,1329.068,2363.01,1315.929,2363.01,1315.929z"/>
					<path style="fill:#FFA412;" d="M2541.092,1331.611c-1.311,9.292,22.912,30.296,61.612,40.183
						c32.282-64.223-29.099-211.245-29.099-211.245l-66.494,140.687C2521.143,1320.178,2541.752,1326.904,2541.092,1331.611z"/>
					<path style="fill:#FFA412;" d="M2485.416,1269.319c7.102,11.735,14.724,22.51,21.695,31.916
						c0.22,0.302,0.439,0.595,0.659,0.896c9.121-3.518,18.177-10.53,22.737-16.98c10.474-14.788,11.337-103.695,11.337-103.695
						S2498.967,1234.423,2485.416,1269.319z"/>
					<path style="fill:#FFB93E;" d="M2354.289,1317.926c0,0,103.71-29.031,156.941-41.735
						c-4.691-62.804-20.064-252.691,76.654-176.68c0,0,7.309,203.498-39.556,244.717c0,0-160.912,3.715-189.56,1.959
						c0,0,2.052-4.886-0.039-7.79C2352.043,1329.106,2354.289,1317.926,2354.289,1317.926z"/>
				</g>
				<g>
					<path style="fill:#699DEE;" d="M2442.868,1442.858v40.004c0,8.259,6.757,15.017,15.016,15.017h236.499
						c8.259,0,15.017-6.758,15.017-15.017v-40.004c0-8.259-6.758-15.016-15.017-15.016h-236.499
						C2449.625,1427.843,2442.868,1434.6,2442.868,1442.858z"/>
					<path style="fill:#163560;" d="M2442.868,1475.58v7.282c0,8.259,6.757,15.017,15.016,15.017h236.499
						c8.259,0,15.017-6.758,15.017-15.017v-7.883h-262.227C2445.684,1474.979,2444.232,1475.192,2442.868,1475.58z"/>
					<g>
						<path style="fill:#3358A0;" d="M2652.464,1497.879l10.661,40.38c0,0,0,0,0.013,0.013l44.385,168.064h4.667l-25.652-139.435
							c-0.024-0.138-0.063-0.275-0.087-0.426l-12.688-68.96L2652.464,1497.879z"/>
					</g>
					<path style="fill:#233862;" d="M2652.464,1497.879l10.661,40.38c0,0,0,0,0.013,0.013c0.613,0.3,20.021,10.336,23.313,28.204
						l-12.688-68.96L2652.464,1497.879z"/>
					<g>
						<path style="fill:#3358A0;" d="M2442.868,1706.336h4.667l36.164-136.906c0-0.014,0-0.014,0-0.025l8.221-31.133
							c0.013-0.013,0.013-0.013,0.013-0.013l10.661-40.38l-21.298-0.363l-7.258,39.43l-5.43,29.53
							c-0.025,0.15-0.063,0.288-0.088,0.426L2442.868,1706.336z"/>
					</g>
					<path style="fill:#E8C6A7;" d="M2514.957,1550.76c0.025,0.012,0.05,0,0.075-0.051
						C2515.132,1550.534,2515.106,1550.572,2514.957,1550.76z"/>
					<path style="fill:#233862;" d="M2474.038,1536.945c3.93,5.718,9.348,16.467,9.661,32.459l8.221-31.133
						c0.013-0.013,0.013-0.013,0.013-0.013l10.661-40.38l-21.298-0.363L2474.038,1536.945z"/>
				</g>
			</g>
		</g>
		<g>
			<g>
				<g>
					<path style="fill:#3358A0;" d="M1780.974,1479.861l34.972,76.371v0.012l67.381,147.145c1.144,2.48,3.622,4.08,6.354,4.08h0.554
						c4.946,0,8.521-4.718,7.196-9.482l-53.493-191.408l-7.798-27.92L1780.974,1479.861z"/>
				</g>
				<path style="fill:#233862;" d="M1815.945,1556.232c-3.333-34.732,27.992-49.654,27.992-49.654l-7.798-27.92l-55.166,1.203
					L1815.945,1556.232z"/>
			</g>
			<g>
				<g>
					<path style="fill:#3358A0;" d="M2142.197,1479.861l34.972,76.371v0.012l67.381,147.145c1.144,2.48,3.623,4.08,6.354,4.08h0.554
						c4.946,0,8.521-4.718,7.196-9.482l-53.493-191.408l-7.799-27.92L2142.197,1479.861z"/>
				</g>
				<path style="fill:#233862;" d="M2177.169,1556.232c-3.333-34.732,27.992-49.654,27.992-49.654l-7.799-27.92l-55.165,1.203
					L2177.169,1556.232z"/>
			</g>
			<path style="fill:#233862;" d="M706.486,1478.658l-7.798,27.92l-53.493,191.408c-1.324,4.765,2.251,9.482,7.196,9.482h0.554
				c2.732,0,5.211-1.6,6.354-4.08l67.381-147.145v-0.012l34.972-76.371L706.486,1478.658z"/>
			<path style="fill:#233862;" d="M991.095,1478.658l-7.798,27.92l-53.494,191.408c-1.324,4.765,2.25,9.482,7.197,9.482h0.554
				c2.732,0,5.211-1.6,6.354-4.08l67.381-147.145v-0.012l34.972-76.371L991.095,1478.658z"/>
			<path style="fill:#233862;" d="M1226.638,871.509H629.205c-9.123,0-16.586,7.464-16.586,16.586v581.196
				c0,9.123,7.464,16.588,16.586,16.588h597.433c9.123,0,16.587-7.465,16.587-16.588V888.095
				C1243.225,878.973,1235.761,871.509,1226.638,871.509z"/>
			<path style="fill:#4A75CB;" d="M1264.888,887.819v493.398c0,8.971-6.498,16.312-14.44,16.312H648.724
				c-7.943,0-14.441-7.341-14.441-16.312V887.819c0-8.971,6.499-16.31,14.441-16.31h601.724
				C1258.39,871.509,1264.888,878.849,1264.888,887.819z"/>
			<path style="fill:#273F76;" d="M748.935,1371.154c0,0-110.717-8.834-114.652-11.553v-101.619
				c23.347-22.084,69.186-47.213,69.186-47.213L748.935,1371.154z"/>
			<g>
				<path style="fill:#273F76;" d="M780.53,1190.271c0-5.861,4.074-10.611,9.099-10.611c5.025,0,9.099,4.75,9.099,10.611
					c0,5.859-4.074,10.609-9.099,10.609C784.604,1200.881,780.53,1196.131,780.53,1190.271z"/>
			</g>
			<path style="fill:#233862;" d="M1725.806,1343.871v127.566c0,7.941,23.409,14.441,15.354,14.441H633.404
				c-8.056,0-14.646-6.5-14.646-14.441v-127.566c0-7.943,6.591-14.441,14.646-14.441h1077.755
				C1719.215,1329.43,1725.806,1335.928,1725.806,1343.871z"/>
		</g>
		<path style="fill:#3358A0;" d="M710.883,1136.73c0,0-50.901,116.871-29.659,192.856l80.428,0.868
			C761.652,1330.455,787.483,1191.876,710.883,1136.73z"/>
		<path style="fill:#507ED1;" d="M710.883,1136.73c0,0,239.339-15.139,350.517-5.572c22.609,1.945,41.725,17.52,48.271,39.248
			l48.222,160.049H761.652C761.652,1330.455,787.483,1214.518,710.883,1136.73z"/>
		<g>
			<path style="fill:#3358A0;" d="M684.237,1156.244v551.221H369.588c-24.542-27.75-224.751-266.076-129.952-551.221H684.237z"/>
			<path style="fill:#233862;" d="M390.902,1156.244v551.221h-21.314c-24.542-27.75-224.751-266.076-129.952-551.221H390.902z"/>
			<g>
				<rect x="390.904" y="1309.059" style="fill:#233862;" width="293.335" height="1.969"/>
			</g>
			<g>
				<rect x="390.904" y="1504.453" style="fill:#233862;" width="293.335" height="1.969"/>
			</g>
		</g>
		<g>
			<path style="fill:#FFA412;" d="M569.67,1102.18c0,14.865-6.084,28.391-15.879,38.186c-9.795,9.794-23.32,15.879-38.185,15.879
				h-62.175c-29.739,0-54.064-24.326-54.064-54.064c0-8.477,1.978-16.518,5.493-23.676c2.648-5.395,6.172-10.297,10.386-14.51
				c9.795-9.795,23.321-15.879,38.186-15.879h62.175c19.275,0,36.275,10.219,45.853,25.506
				C566.657,1081.92,569.67,1091.715,569.67,1102.18z"/>
			<path style="fill:#FFB93E;" d="M561.459,1073.621c-16.42,26.914-46.06,44.88-79.895,44.88c-31.747,0-59.793-15.819-76.706-39.997
				c2.648-5.395,6.172-10.297,10.386-14.51c9.795-9.795,23.321-15.879,38.186-15.879h62.175
				C534.881,1048.115,551.881,1058.334,561.459,1073.621z"/>
			<path style="fill:#E27E33;" d="M573.45,1071.742H397.575c-16.774,0-28.007-17.68-21.214-33.402l55.58-128.662
				c3.721-8.594,12.039-14.146,21.214-14.146h71.419c9.559,0,18.143,6.015,21.618,15.15l48.876,128.662
				C600.984,1054.928,589.771,1071.742,573.45,1071.742z"/>
			<path style="fill:#F99746;" d="M573.45,1071.742H438.261c-16.774,0-28.007-17.68-21.214-33.402l55.589-128.662
				c3.711-8.594,12.03-14.146,21.204-14.146h30.733c9.559,0,18.143,6.015,21.618,15.15l48.876,128.662
				C600.984,1054.928,589.771,1071.742,573.45,1071.742z"/>
		</g>
		<path style="fill:#2C3A64;" d="M843.619,1030.821c-1.322-2.191-20.654,55.651-20.435,59.78
			c2.026,38.192,33.429,59.203,44.03,49.079c6.798-6.493,16.575,5.831,16.575,5.831l42.58-105.403
			C926.369,1040.108,865.422,997.12,843.619,1030.821z"/>
		<path style="fill:#2C3A64;" d="M856.783,1025.744c0,0-26.234-31.453-58.416,0.811c0,0,12.403-7.131,22.751-6.898
			c0,0-32.607,8.527-36.381,49.438c-3.774,40.911,56.661,73.435,58.708,89.062c2.047,15.628-22.637,43.91,9.178,69.179
			c31.815,25.269,148.333-19.947,166.797,8.837c0,0-14.985-78.213-58.88-76.758c0,0,21.437-0.668,34.936,10.551
			c0,0-21.171-27.1-44.235-19.434c-20.411,6.784-56.54-7.02-59.835-12.657C888.112,1132.236,856.783,1025.744,856.783,1025.744z"/>
		<path style="fill:#FFB27D;" d="M961.123,1249.901c-50.021,31.435-81.328-51.752-77.963-53.109
			c4.483-6.797,6.94-29.095-1.362-59.516l2.797-0.201l46.929-3.142c0,0,2.764,14.306,6.27,27.516
			c2.753,10.335,5.978,20.004,8.704,21.698C950.094,1182.714,974.469,1241.521,961.123,1249.901z"/>
		<path style="fill:#ED985F;" d="M931.529,1133.94c0,0,2.753,14.297,6.271,27.516c-25.125,5.994-44.415-13.213-53.202-24.371
			L931.529,1133.94z"/>
		<path style="fill:#FFB27D;" d="M943.216,1144.213c0,0-58.737,16.82-68.648-19.92c-9.911-36.739-24.167-59.313,12.917-71.604
			s48.182-0.246,54.472,11.212C948.247,1075.358,958.24,1138.892,943.216,1144.213z"/>
		<path style="fill:#2C3A64;" d="M934.713,1043.938c-12.088-8.604-18.328-4.327-21.297,0.033
			c-37.01-9.068-63.137,13.958-63.137,13.958c3.136,27.429,0.565,56.409,0.565,56.409s12.538,3.754,35.616-9.279
			c7.05-3.981,12.365-11.18,16.358-19.25c-5.516,19.512-15.917,35.296-15.917,35.296c25.936-21.643,26.766-66.021,26.78-70.694
			c4.471,2.267,13.457,7.386,17.471,13.691c5.454,8.568,11.952,27.479,17.391,25.314
			C948.544,1089.416,952.843,1056.843,934.713,1043.938z"/>
		<path style="fill:#FFB27D;" d="M1187.683,1273.1l-41.324,48.219l-63.679,74.3l-35.273,41.154c0,0-30.759,28.114-74.732,14.86
			c-15.933-4.803-34.262-23.979-52.827-42.95c-69.803-71.328-92.071-183.132-92.071-183.132c1.398-1.107,18.075-13.907,37.341-22.48
			c28.085-12.495,67.489-27.822,95.854-31.117c7.91-0.92,14.954-0.906,20.667,0.367c40.243,8.965,65.545,111.555,111.914,111.418
			c12.17-0.04,24.438-0.786,35.902-1.869C1161.699,1278.817,1187.683,1273.1,1187.683,1273.1z"/>
		<path style="fill:#FFB27D;" d="M960.973,1171.952c0,0,152.53,39.046,166.219,50.673c0,0-60.237,37.676-119.173,22.162
			C949.083,1229.272,960.973,1171.952,960.973,1171.952z"/>
		<path style="fill:#E9F2FF;" d="M1047.83,1227.51c-1.159,6.917-3.599,11.67-4.787,13.674c-0.417,0.697-0.681,1.065-0.681,1.065
			l-0.177-0.197l-21.97-25.307l-38.577-44.425c12.437,0.983,60.174,21.416,60.174,21.416
			C1048.756,1207.488,1049.245,1219.106,1047.83,1227.51z"/>
		<path style="fill:#E9F2FF;" d="M1146.359,1321.318c-0.368,2.271-1.239,4.254-2.673,5.896
			c-19.991,22.875-13.216,49.605-61.006,68.403c-10.161,4.002-22.801,7.639-38.703,10.808
			c-32.075,6.395-53.961,26.796-71.302,45.207c-15.933-4.803-33.611-15.035-52.175-34.007
			c-69.803-71.328-88.933-191.816-88.933-191.816c1.399-1.105,14.285-14.166,33.551-22.739c0,0,77.274,24.274,91.852,10.589
			c14.568-13.683,4.002-41.706,4.002-41.706c7.91-0.92,14.954-0.906,20.667,0.367c40.243,8.965,65.545,111.555,111.914,111.418
			c12.17-0.04,24.438-0.786,35.902-1.869C1140.959,1297.934,1147.859,1312.057,1146.359,1321.318z"/>
		<path style="fill:#91CECF;" d="M1047.83,1227.51c-1.159,6.917-3.599,11.67-4.787,13.674l-0.857,0.868l-6.363,6.464
			c0,0-39.27-34.985-30.531-35.442c2.702-0.146,8.376,1.425,14.924,3.672C1029.693,1219.99,1041.022,1224.635,1047.83,1227.51z"/>
		<path style="fill:#A3D8D6;" d="M2033.577,1323.376c0,0-65.257,80.604-85.654,85.704c-19.038,4.754-165.193-74.009-184.626-84.542
			c-0.01-0.009-0.01-0.009-0.01-0.009c-1.388-0.749-2.127-1.153-2.127-1.153s-770.655,198.872-789.35,195.476
			c-16.183-2.943-100.764-135.18-111.13-181.328c-0.699-3.072-1.053-5.76-1.044-8.004v-0.078c0.02-2.963,0.699-5.148,2.127-6.398
			c18.694-16.352,187.186-168.994,250.986-143.607c63.799,25.389,311.645-44.022,376.231-34.316
			C1553.578,1154.836,2033.577,1323.376,2033.577,1323.376z"/>
		<path style="fill:#9BD3D3;" d="M1761.16,1323.376c0,0-770.655,198.872-789.35,195.476
			c-16.183-2.943-100.764-135.18-111.13-181.328l-1.044-8.004l-0.01-0.088c0,0,0,0,0.01,0.01
			c1.339,0.521,92.043,36.738,178.543,31.785C1125.319,1356.236,1707.914,1308.236,1761.16,1323.376z"/>
		<path style="fill:#D67330;" d="M1763.287,1324.529c-1.388-0.749-2.127-1.153-2.127-1.153
			C1762.155,1323.652,1762.854,1324.047,1763.287,1324.529z"/>
		<path style="fill:#FFB27D;" d="M836.111,1226.997c0,0-44.135,28.563,6.121,67.446c50.256,38.885,184.148,80.41,188.117,73.808
			s1.168-24.924-3.7-34.756C1021.78,1323.661,862.824,1205.316,836.111,1226.997z"/>
		<path style="fill:#FFB27D;" d="M1234.811,1230.324c-11.912-9.337-32.938-4.65-40.54-3.201
			c-20.047,3.822-24.382,14.323-33.552,22.981c0,0-124.258,51.117-147.887,70.746l17.515,47.401c0,0,85.585-55.994,134.287-102.051
			c3.013-2.85,6.799-4.742,10.872-5.52c8.618-1.644,23.561-5.8,31.993-10.11C1226.716,1240.749,1240.928,1235.12,1234.811,1230.324z
			"/>
		<path style="fill:#FFB27D;" d="M1154.257,1259.197c0,0,6.554-10.166,8.277-14.842c1.724-4.676,12.746-11.178,17.294-17.504
			c4.547-6.326,6.447-7.951,6.874-2.502c0.426,5.449-4.134,11.033-1.512,12.258c2.621,1.226,9.454,8.337,9.454,8.337
			L1154.257,1259.197z"/>
		<path style="fill:#E9F2FF;" d="M865.119,1203.07c0,0-37.184,12.622-45.574,32.046c-12.668,29.328,13.758,64.756,27.471,76.526
			c0,0,62.918-9.558,65.594-59.769L865.119,1203.07z"/>
		<path style="fill:#233862;" d="M1738.175,1081.717h455.055c21.559,0,39.036,17.477,39.036,39.036v326.089
			c0,21.56-17.478,39.037-39.036,39.037h-455.055c-21.559,0-39.036-17.478-39.036-39.037v-326.089
			C1699.139,1099.193,1716.616,1081.717,1738.175,1081.717z"/>
		<path style="fill:#3358A0;" d="M1764.842,1081.717h455.055c21.559,0,39.035,17.477,39.035,39.036v326.089
			c0,21.56-17.477,39.037-39.035,39.037h-455.055c-21.559,0-39.036-17.478-39.036-39.037v-326.089
			C1725.806,1099.193,1743.283,1081.717,1764.842,1081.717z"/>
		<path style="fill:#588FE0;" d="M2217.725,1128.587h-452c-6.352,0-11.5-5.148-11.5-11.5l0,0c0-6.351,5.148-11.5,11.5-11.5h452
			c6.351,0,11.5,5.149,11.5,11.5l0,0C2229.225,1123.438,2224.075,1128.587,2217.725,1128.587z"/>
		<path style="opacity:0.8;fill:#ABDDDA;" d="M931.379,1104.655c2.158-3.312,6.715-4.008,9.684-1.398
			c10.813,9.505,22.287,32.205,6.162,42.255c-14.25,8.325-36.667,0-29.5-24.407C920.667,1112.064,927.153,1111.14,931.379,1104.655z
			"/>
		<path style="fill:#2C3A64;" d="M926.37,1143.837c-0.019,0-0.039,0-0.058-0.001l-57.214-3.283l-8.428-16.329l4.792-21.563
			l59.951,12.196c0.542,0.11,0.891,0.638,0.781,1.179c-0.11,0.542-0.637,0.893-1.179,0.781l-58.026-11.805l-4.208,18.938
			l7.572,14.671l56.075,3.218c0.552,0.031,0.973,0.504,0.941,1.056C927.336,1143.427,926.895,1143.837,926.37,1143.837z"/>
		<g>
			<path style="fill:#233862;" d="M1481.58,1012.005h-162.378c-5.688,0-10.298-4.61-10.298-10.298V868.94
				c0-5.688,4.61-10.298,10.298-10.298h162.378c5.688,0,10.298,4.61,10.298,10.298v132.767
				C1491.878,1007.394,1487.268,1012.005,1481.58,1012.005z"/>
			<path style="fill:#4A75CB;" d="M1544.073,1012.005h-162.378c-5.688,0-10.298-4.61-10.298-10.298V868.94
				c0-5.688,4.61-10.298,10.298-10.298h162.378c5.688,0,10.298,4.61,10.298,10.298v132.767
				C1554.371,1007.394,1549.761,1012.005,1544.073,1012.005z"/>
			<path style="fill:#3358A0;" d="M1503.125,1004.934h-110.333c-7.778,0-14.083-6.306-14.083-14.084V880.517
				c0-7.778,6.306-14.083,14.083-14.083h110.333c7.777,0,14.083,6.306,14.083,14.083V990.85
				C1517.208,998.628,1510.902,1004.934,1503.125,1004.934z"/>
			<path style="fill:#A8D29F;" d="M1414.458,941.183c-0.004,0-0.008,0-0.012,0c-0.502-0.006-0.922-0.383-0.981-0.882l-5.313-44.88
				l-2.462,12.703c-0.091,0.47-0.503,0.81-0.982,0.81h-11.25c-0.552,0-1-0.448-1-1c0-0.552,0.448-1,1-1h10.425l3.525-18.19
				c0.094-0.483,0.552-0.835,1.019-0.809c0.493,0.018,0.898,0.393,0.957,0.882l5.164,43.621l4.67-32.893
				c0.065-0.455,0.431-0.808,0.889-0.854c0.46-0.053,0.888,0.225,1.043,0.657l3.262,9.088h36.076l3.272-9.816
				c0.146-0.437,0.568-0.722,1.032-0.68c0.459,0.039,0.833,0.387,0.905,0.843l3.402,21.817l6.63-31.867
				c0.095-0.456,0.491-0.785,0.956-0.796c0.498-0.047,0.876,0.3,0.992,0.75l6.301,24.529l1.822-3.949
				c0.164-0.354,0.519-0.581,0.908-0.581h21.75c0.553,0,1,0.448,1,1c0,0.552-0.447,1-1,1h-21.11l-2.731,5.919
				c-0.178,0.384-0.583,0.606-0.998,0.577c-0.422-0.039-0.773-0.337-0.879-0.747l-5.929-23.082l-6.874,33.036
				c-0.098,0.473-0.528,0.814-1.004,0.796c-0.483-0.012-0.888-0.368-0.963-0.845l-3.615-23.182l-2.198,6.594
				c-0.136,0.408-0.518,0.684-0.949,0.684h-37.5c-0.422,0-0.799-0.265-0.941-0.662l-2.136-5.951l-5.183,36.503
				C1415.378,940.817,1414.956,941.183,1414.458,941.183z"/>
			<path style="fill:#A8D29F;" d="M1487.458,989.433c-0.418,0-0.793-0.26-0.938-0.654l-5.188-14.083l-2.392,2.568
				c-0.189,0.203-0.455,0.318-0.732,0.318h-37.5c-0.29,0-0.566-0.126-0.756-0.346l-2.43-2.81l-3.637,8.985
				c-0.145,0.359-0.485,0.602-0.872,0.624c-0.393,0.024-0.751-0.183-0.935-0.523l-6.96-12.892l-6.078,9.118
				c-0.157,0.236-0.408,0.395-0.688,0.435c-0.283,0.039-0.566-0.04-0.784-0.222l-2.722-2.272h-21.388c-0.552,0-1-0.448-1-1
				c0-0.552,0.448-1,1-1h21.75c0.234,0,0.461,0.082,0.641,0.232l2.145,1.79l6.382-9.574c0.195-0.292,0.517-0.448,0.878-0.444
				c0.351,0.017,0.667,0.215,0.833,0.524l6.74,12.485l3.453-8.531c0.13-0.323,0.419-0.555,0.763-0.611
				c0.345-0.059,0.692,0.068,0.92,0.332l3.201,3.701h36.608l3.204-3.439c0.236-0.254,0.585-0.369,0.929-0.299
				c0.34,0.068,0.621,0.309,0.741,0.635l4.726,12.827l5.197-16.918c0.12-0.391,0.466-0.669,0.872-0.703
				c0.401-0.033,0.794,0.182,0.978,0.547l3.405,6.771h10.634c0.553,0,1,0.448,1,1c0,0.552-0.447,1-1,1h-11.25
				c-0.378,0-0.724-0.213-0.894-0.551l-2.564-5.098l-5.336,17.371c-0.126,0.41-0.5,0.694-0.929,0.706
				C1487.477,989.433,1487.467,989.433,1487.458,989.433z"/>
			<g>
				<path style="fill:#233862;" d="M1540.401,896.751h-6.303c-3.529,0-6.391,2.861-6.391,6.391s2.861,6.39,6.391,6.39h6.303
					c3.529,0,6.39-2.861,6.39-6.39S1543.931,896.751,1540.401,896.751z"/>
				<path style="fill:#3358A0;" d="M1545.653,903.142c0,2.901-2.352,5.252-5.252,5.252c-2.901,0-5.252-2.352-5.252-5.252
					s2.351-5.252,5.252-5.252C1543.302,897.889,1545.653,900.241,1545.653,903.142z"/>
			</g>
			<g>
				<path style="fill:#233862;" d="M1540.401,926.751h-6.303c-3.529,0-6.391,2.861-6.391,6.391s2.861,6.39,6.391,6.39h6.303
					c3.529,0,6.39-2.861,6.39-6.39S1543.931,926.751,1540.401,926.751z"/>
				<path style="fill:#3358A0;" d="M1545.653,933.142c0,2.901-2.352,5.252-5.252,5.252c-2.901,0-5.252-2.352-5.252-5.252
					s2.351-5.252,5.252-5.252C1543.302,927.889,1545.653,930.241,1545.653,933.142z"/>
			</g>
			<g>
				<path style="fill:#233862;" d="M1540.401,956.751h-6.303c-3.529,0-6.391,2.861-6.391,6.391s2.861,6.39,6.391,6.39h6.303
					c3.529,0,6.39-2.861,6.39-6.39S1543.931,956.751,1540.401,956.751z"/>
				<path style="fill:#3358A0;" d="M1545.653,963.142c0,2.901-2.352,5.252-5.252,5.252c-2.901,0-5.252-2.352-5.252-5.252
					s2.351-5.252,5.252-5.252C1543.302,957.889,1545.653,960.241,1545.653,963.142z"/>
			</g>
			<path style="fill:#A8D29F;" d="M1416.542,875.433h-22.083c-1.104,0-2-0.896-2-2l0,0c0-1.104,0.896-2,2-2h22.083
				c1.104,0,2,0.896,2,2l0,0C1418.542,874.538,1417.646,875.433,1416.542,875.433z"/>
			<path style="fill:#A8D29F;" d="M1427.542,875.433h-3.667c-1.104,0-2-0.896-2-2l0,0c0-1.104,0.896-2,2-2h3.667
				c1.104,0,2,0.896,2,2l0,0C1429.542,874.538,1428.646,875.433,1427.542,875.433z"/>
			<path style="fill:#A8D29F;" d="M1416.542,955.433h-22.083c-1.104,0-2-0.896-2-2l0,0c0-1.104,0.896-2,2-2h22.083
				c1.104,0,2,0.896,2,2l0,0C1418.542,954.538,1417.646,955.433,1416.542,955.433z"/>
			<path style="fill:#A8D29F;" d="M1427.542,955.433h-3.667c-1.104,0-2-0.896-2-2l0,0c0-1.104,0.896-2,2-2h3.667
				c1.104,0,2,0.896,2,2l0,0C1429.542,954.538,1428.646,955.433,1427.542,955.433z"/>
		</g>
		<g>
			<g>
				<path style="fill:#2C3A64;" d="M2177.857,1616.006c0,0,19.479,18.053,15.678,30.879s-21.378,21.378-23.754,37.055
					c-2.375,15.676-11.876,24.228-20.427,24.228s-40.767,0-40.767,0s-6.295-11.032,8.906-14.357
					c15.202-3.325,20.935-21.746,19.984-38.849s1.425-39.904,1.425-39.904l32.304-7.601L2177.857,1616.006z"/>
				<path style="fill:#2C3A64;" d="M1935.104,1707.508c-0.305,0.157-0.734,0.298-1.28,0.438h-109.041
					c0.949-3.859,4.445-11.196,17.211-13.271c17.028-2.76,46.534-12.658,53.12-34.431c0.207-0.702,0.396-1.421,0.562-2.147
					c5.23-23.276,43.23,7.13,43.23,7.13s0.115,0.926,0.281,2.504C1940.062,1676.268,1942.317,1703.896,1935.104,1707.508z"/>
				<path style="fill:#35488B;" d="M1846.516,1084.897c0,0,5.772,72.014,12.557,158.577c9.22,117.59,20.309,262.029,21.405,289.393
					c1.896,47.515,9.506,123.518,9.506,123.518s18.042,18.057,54.155,10.446c0,0,32.181-108.497,41.372-223.293
					c0.144-1.881,0.286-3.776,0.428-5.672c8.552-116.863,21.849-362.944,21.849-362.944L1846.516,1084.897z"/>
				<path style="fill:#2C3A64;" d="M1846.516,1084.897c0,0,5.772,72.014,12.557,158.577l126.438,200.063
					c0.144-1.881,0.286-3.776,0.428-5.672c8.552-116.863,21.849-362.944,21.849-362.944L1846.516,1084.897z"/>
				<path style="fill:#35488B;" d="M1872.875,1093.45c0,0,104.036,260.803,172.443,383.366
					c68.408,122.563,89.785,156.768,89.785,156.768s39.191-15.678,42.754-26.366c0,0-26.158-236.614-71.971-294.294
					c-25.886-32.593-56.293-130.402-57.718-164.605c-1.426-34.204-9.264-101.899-9.264-101.899L1872.875,1093.45z"/>
			</g>
			<g>
				<path style="fill:#F4AC75;" d="M1910.251,632.75c38.694,12.206,105.653-20.748,105.653-20.748s-30.19-22.655-33.569-69.654
					c-0.057-0.646-0.095-1.29-0.123-1.946c-0.199-3.483-0.247-7.109-0.124-10.857l-10.592,8.532l-39.644,31.966
					c0,0,2.031,15.755,2.847,42.017c-6.283,3.445-11.313,7.251-15.128,10.639C1913.279,628.28,1910.251,632.75,1910.251,632.75z"/>
				<path style="fill:#F4AC75;" d="M2058.852,606.992c0,0-102.279-16.135-169.666,28.473c0,0-45.779,299.278-5.918,327.595
					c39.862,28.317,175.584,0,175.584,0V606.992z"/>
				<path style="fill:#E9F2FF;" d="M1922.361,1285.019h184.827c0,0-21.478-315.376-27.608-392.149
					c-4.983-62.271-15.519-211.573-19.324-265.776c-0.883-12.632-1.404-20.102-1.404-20.102l-44.124-7.517l-75.785,98.222
					c0,0-11.987,261.942-11.551,303.228c0.427,41.285-4.783,202.147-5.03,229.197
					C1922.124,1257.162,1922.361,1285.019,1922.361,1285.019z"/>
				<path style="fill:#E9F2FF;" d="M1938.938,697.7l-16.571,587.32h-87.081c0,0,4.029-386.282,4.324-421.773
					c0.296-35.49-9.463-188.374,17.712-212.102c22.716-19.834,77.378-39.092,77.378-39.092L1938.938,697.7z"/>
				<path style="fill:#E9F2FF;" d="M1934.141,598.502c0,0-24.825,17.104-23.893,23.245c0.933,6.141,4.34,15.852,4.34,15.852
					l15.186-3.084l-12.813,9.016c0,0,14.531,42.375,21.977,54.169L1934.141,598.502z"/>
				<path style="opacity:0.2;fill:#B2CBFD;" d="M2070.666,773.449c-10.865-66.802-136.464,31.913-126.023,119.53
					c19.316,162.097,101.566,342.833,162.546,392.04L2070.666,773.449z"/>
				<path style="fill:#C97C47;" d="M1982.335,542.348c0.171-1.204,0.56-1.794,0.56-1.794l-0.683-0.152l-10.716-2.325l-39.644,31.966
					c0,0,1.715,14.884,2.941,42.085C1934.896,611.992,1975.647,589.433,1982.335,542.348z"/>
				<path style="fill:#F4AC75;" d="M1915.7,579.753c0,0,69.021-1.932,67.156-44.896c-1.865-42.964,5.787-72.149-38.359-72.732
					s-51.991,16.183-54.856,30.675C1886.774,507.293,1897.698,579.149,1915.7,579.753z"/>
				<path style="fill:#2B478B;" d="M1982.894,540.554c0,0-8.986,2.373-16.104-7.118c-7.119-9.491-18.982-46.031-34.643-48.404
					c-15.66-2.372-36.303,9.253-42.961,2.61c-2.341-2.336-4.845-5.03-7.298-7.774c-8.342-9.333-6.05-23.956,4.772-30.247
					c25.135-14.609,67.878-34.711,88.987-17.265C2006.65,457.983,2017.505,495.472,1982.894,540.554z"/>
				<g>
					<path style="fill:#B2CBFD;" d="M1932.198,1285.019c0.061-0.592,6.04-59.75,4.315-111.169
						c-0.729-21.724-0.112-47.267,0.482-71.967c0.849-35.232,2.742-69.163-0.104-91.287c-4.871-37.859-3.898-209.954-1.9-228.603
						c1.948-18.183,0.086-38.132-1.718-44.145c-1.838-6.128,6.036-39.688,6.124-40.03l-0.919-0.237
						c-0.363,1.404-8.859,34.457-6.945,40.838c1.785,5.951,4.447,25.424,2.515,43.471c-2.001,18.669-5.828,190.729-0.952,228.627
						c2.837,22.053,3.799,56.147,2.951,91.343c-0.596,24.714-1.211,50.271-0.482,72.021c1.725,51.355-6.996,110.546-7.057,111.138
						H1932.198z"/>
				</g>
				<path style="fill:#E9F2FF;" d="M1779.146,812.587c0,0-23.383,40.257,1.137,50.849c24.52,10.592,27.167-0.569,27.167-0.569
					L1779.146,812.587z"/>
				<path style="fill:#E9F2FF;" d="M1975.093,837.385c0,0-3.718,7.584-3.299,14.394c0.438,7.123,3.774,17.875,3.774,17.875
					s144.377,30.732,172.432,5.04c30.124-27.581-25.768-234.817-49.686-255.089c-10.307-8.741-32.041-14.076-52.105-17.265
					c-11.057-1.765-21.602-2.875-29.45-3.549c-8.087-0.702-13.325-0.93-13.325-0.93l3.255,12.034l12.661,46.79l14.759,54.573
					c0,0,44.133,90.838,45.557,99.38C2081.089,819.182,1975.093,837.385,1975.093,837.385z"/>
				<path style="opacity:0.2;fill:#B2CBFD;" d="M1954.999,683.183c0,0,36.817-16.028,63.278-30.635
					c17.276-9.537,26.119-27.391,27.932-50.208c-11.057-1.765-21.602-2.875-29.45-3.549c-1.272,0.408-2.031,0.684-2.031,0.684
					l-8.039,10.421L1954.999,683.183z"/>
				<path style="fill:#E9F2FF;" d="M1938.938,697.7l57.344-109.357c0,0,21.391,4.337,28.572,11.068c0,0-3.65,32.889-6.497,40.165
					c0,0-11.073-1.266-12.655-0.316c0,0,5.379,8.226,6.961,9.175C2012.662,648.435,1962.813,671.67,1938.938,697.7z"/>
				<circle style="opacity:0.5;fill:#B2CBFD;" cx="1924.58" cy="765.75" r="4.603"/>
				<path style="opacity:0.5;fill:#B2CBFD;" d="M1929.184,1023.646c0-2.543-2.061-4.604-4.604-4.604s-4.604,2.062-4.604,4.604
					c0,2.542,2.061,4.604,4.604,4.604S1929.184,1026.188,1929.184,1023.646z"/>
				<path style="opacity:0.5;fill:#B2CBFD;" d="M1926.859,905.784c0-2.542-2.062-4.603-4.604-4.603
					c-2.543,0-4.604,2.061-4.604,4.603c0,2.543,2.061,4.604,4.604,4.604C1924.798,910.388,1926.859,908.327,1926.859,905.784z"/>
				<path style="opacity:0.5;fill:#B2CBFD;" d="M1926.859,1135.701c0-2.542-2.062-4.604-4.604-4.604
					c-2.543,0-4.604,2.062-4.604,4.604c0,2.543,2.061,4.604,4.604,4.604C1924.798,1140.306,1926.859,1138.244,1926.859,1135.701z"/>
				<path style="fill:#7A97F3;" d="M1977.788,623.612c0,0-15.957,7.852-41.749,2.994l2.898,71.094L1977.788,623.612z"/>
				<g>
					<polygon style="fill:#699EEE;" points="1876.977,707.723 1727.654,721.102 1818.768,882.958 1959.318,874.887 					"/>
					<path style="fill:#B2CBFD;" d="M1863.219,706.977c0,0-0.064-22.877-12.709-21.295c-12.645,1.581-16.463,24.564-16.463,24.564
						L1863.219,706.977z"/>
					<polygon style="fill:#2C3A64;" points="1728.628,719.06 1877.951,705.681 1960.292,872.845 1959.284,874.92 1876.942,707.758 
						1727.619,721.136 					"/>
					<path style="fill:#E9F2FF;" d="M1850.51,685.681c0,0-21.101,10.359-13.643,43.552c7.457,33.192,16.746,51.401,11.332,71.034
						l-100.588,9.234c0,0,10.931-26.101-1.213-52.519c-12.144-26.418-3.516-56.609,7.631-59.237L1850.51,685.681z"/>
				</g>
				<path style="fill:#F4AC75;" d="M1800.274,852.829c0,0,15.291-18.375,12.128-31.663c-3.164-13.288-14.553-16.36-21.514-11.661
					c-6.96,4.7-17.084,15.456-15.186,23.683C1777.602,841.414,1792.575,856.65,1800.274,852.829z"/>
				<path style="fill:#F4AC75;" d="M1982.729,841.894c0,0-25.905-11.39-37.77-8.068c-11.863,3.322-27.867,5.695-29.119,9.965
					c-1.252,4.272,8.534,20.083,23.098,20.88c14.563,0.797,40.189,7.593,46.358,0
					C1991.465,857.079,1982.729,841.894,1982.729,841.894z"/>
			</g>
		</g>
	</g>
	<path style="fill:#2E3552;" d="M2826.425,1713.52H173.575c-1.657,0-3.012-1.356-3.012-3.014v-1.026
		c0-1.658,1.355-3.013,3.012-3.013h2652.85c1.657,0,3.013,1.354,3.013,3.013v1.026
		C2829.438,1712.163,2828.082,1713.52,2826.425,1713.52z"/>
</g>
</svg>
