<svg enable-background="new 0 0 512 512" viewBox="0 0 512 512" xmlns="http://www.w3.org/2000/svg"><circle cx="256" cy="256" fill="#f0c48a" r="207"/><path d="m397.508 385.09h-283.016v-144.007c0-11.154 9.042-20.197 20.197-20.197h242.623c11.154 0 20.197 9.042 20.197 20.197v144.007z" fill="#d3e6f8"/><path d="m165.416 220.886h33.606v162.264h-33.606z" fill="#a4cff2"/><path d="m377.311 220.886h-6.131v164.204h26.328v-144.007c0-11.154-9.042-20.197-20.197-20.197z" fill="#a4cff2"/><path d="m327.761 250.794h49.67v36.58h-49.67z" fill="#7babf1"/><path d="m327.761 312.345h49.67v36.58h-49.67z" fill="#7babf1"/><path d="m134.568 250.794h49.67v36.58h-49.67z" fill="#7babf1"/><path d="m134.568 312.345h49.67v36.58h-49.67z" fill="#7babf1"/><path d="m397.508 391.09h-283.016c-3.313 0-6-2.686-6-6v-144.007c0-14.445 11.751-26.197 26.196-26.197h242.623c14.445 0 26.196 11.752 26.196 26.197v144.007c.001 3.314-2.686 6-5.999 6zm-277.016-12h271.016v-138.007c0-7.828-6.369-14.197-14.196-14.197h-242.624c-7.828 0-14.196 6.369-14.196 14.197z" fill="#4c4372"/><path d="m377.432 293.374h-49.67c-3.313 0-6-2.686-6-6v-36.58c0-3.314 2.687-6 6-6h49.67c3.313 0 6 2.686 6 6v36.58c0 3.314-2.687 6-6 6zm-43.671-12h37.67v-24.58h-37.67z" fill="#4c4372"/><path d="m377.432 354.925h-49.67c-3.313 0-6-2.686-6-6v-36.58c0-3.314 2.687-6 6-6h49.67c3.313 0 6 2.686 6 6v36.58c0 3.314-2.687 6-6 6zm-43.671-12h37.67v-24.58h-37.67z" fill="#4c4372"/><path d="m184.239 157.46h143.523v227.63h-143.523z" fill="#fff"/><path d="m301.522 157.46h26.24v227.63h-26.24z" fill="#d3e6f8"/><path d="m210.478 294.046h91.044v91.044h-91.044z" fill="#7babf1"/><path d="m168.854 126.91h174.292v30.55h-174.292z" fill="#7babf1"/><g fill="#4c4372"><path d="m327.761 391.09h-143.522c-3.314 0-6-2.686-6-6v-227.63c0-3.314 2.686-6 6-6h143.522c3.314 0 6 2.686 6 6v227.63c0 3.314-2.686 6-6 6zm-137.522-12h131.522v-215.63h-131.522z"/><path d="m343.146 163.46h-174.292c-3.313 0-6-2.686-6-6v-30.55c0-3.314 2.687-6 6-6h174.292c3.313 0 6 2.686 6 6v30.55c0 3.314-2.687 6-6 6zm-168.292-12h162.292v-18.55h-162.292z"/><path d="m301.522 391.09h-91.044c-3.313 0-6-2.686-6-6v-91.044c0-3.314 2.687-6 6-6h91.044c3.313 0 6 2.686 6 6v91.044c0 3.314-2.687 6-6 6zm-85.044-12h79.044v-79.044h-79.044z"/><path d="m257.068 391.09c-3.313 0-6-2.686-6-6v-91.044c0-3.314 2.687-6 6-6s6 2.686 6 6v91.044c0 3.314-2.686 6-6 6z"/><path d="m184.239 293.374h-49.67c-3.313 0-6-2.686-6-6v-36.58c0-3.314 2.687-6 6-6h49.67c3.313 0 6 2.686 6 6v36.58c0 3.314-2.687 6-6 6zm-43.671-12h37.67v-24.58h-37.67z"/><path d="m184.239 354.925h-49.67c-3.313 0-6-2.686-6-6v-36.58c0-3.314 2.687-6 6-6h49.67c3.313 0 6 2.686 6 6v36.58c0 3.314-2.687 6-6 6zm-43.671-12h37.67v-24.58h-37.67z"/></g><path d="m289.219 206.299h-21.824v-21.824h-22.79v21.824h-21.824v22.791h21.824v21.824h22.79v-21.824h21.824z" fill="#fd919e"/><path d="m267.396 256.914h-22.791c-3.313 0-6-2.686-6-6v-15.824h-15.824c-3.313 0-6-2.686-6-6v-22.791c0-3.314 2.687-6 6-6h15.824v-15.824c0-3.314 2.687-6 6-6h22.791c3.313 0 6 2.686 6 6v15.824h15.824c3.313 0 6 2.686 6 6v22.791c0 3.314-2.687 6-6 6h-15.824v15.824c0 3.313-2.687 6-6 6zm-16.792-12h10.791v-15.824c0-3.314 2.687-6 6-6h15.824v-10.791h-15.824c-3.313 0-6-2.686-6-6v-15.824h-10.791v15.824c0 3.314-2.687 6-6 6h-15.824v10.791h15.824c3.313 0 6 2.686 6 6z" fill="#4c4372"/><path d="m200.327 271.275h111.345v22.771h-111.345z" fill="#a4cff2"/><path d="m281.949 271.275h29.723v22.771h-29.723z" fill="#7babf1"/><path d="m311.672 300.046h-111.344c-3.313 0-6-2.686-6-6v-22.771c0-3.314 2.687-6 6-6h111.345c3.313 0 6 2.686 6 6v22.771c-.001 3.314-2.687 6-6.001 6zm-105.344-12h99.345v-10.771h-99.345z" fill="#4c4372"/></svg>