<svg viewBox="0 0 72 72" xmlns="http://www.w3.org/2000/svg"><path d="m22.5 12h27v48h-27z" fill="#fff"/><path d="m13.5 25h9v35h-9z" fill="#fff"/><path d="m49.5 25h9v35h-9z" fill="#fff"/><path d="m29.5 44h13v16h-13z" fill="#92d3f5"/><path d="m43.5 23h-5v-5h-5v5h-5v5h5v5h5v-5h5z" fill="#ea5a47"/><g fill="none" stroke-linecap="round" stroke-linejoin="round" stroke-miterlimit="10" stroke-width="2"><path d="m17 30h2v5h-2z" stroke="#92d3f5"/><path d="m17 40h2v5h-2z" stroke="#92d3f5"/><path d="m17 50h2v5h-2z" stroke="#92d3f5"/><path d="m53 30h2v5h-2z" stroke="#92d3f5"/><path d="m53 40h2v5h-2z" stroke="#92d3f5"/><path d="m53 50h2v5h-2z" stroke="#92d3f5"/><path d="m22.5 12h27v48h-27z" stroke="#000"/><path d="m13.5 25h9v35h-9z" stroke="#000"/><path d="m49.5 25h9v35h-9z" stroke="#000"/><path d="m29.5 44h13v16h-13z" stroke="#000"/><path d="m36 60v-16" stroke="#000"/><path d="m43.5 23h-5v-5h-5v5h-5v5h5v5h5v-5h5z" stroke="#000"/><path d="m19 35h-2v-5" stroke="#000"/><path d="m19 45h-2v-5" stroke="#000"/><path d="m19 55h-2v-5" stroke="#000"/><path d="m55 35h-2v-5" stroke="#000"/><path d="m55 45h-2v-5" stroke="#000"/><path d="m55 55h-2v-5" stroke="#000"/></g></svg>